<svg id="visual" viewBox="0 0 1920 1080" width="1920" height="1080" xmlns="http://www.w3.org/2000/svg" xmlns:xlink="http://www.w3.org/1999/xlink" version="1.1"><rect x="0" y="0" width="1920" height="1080" fill="#FCAF3C"></rect><path d="M0 684L45.7 684.3C91.3 684.7 182.7 685.3 274.2 693.8C365.7 702.3 457.3 718.7 548.8 709.3C640.3 700 731.7 665 823 650.2C914.3 635.3 1005.7 640.7 1097 647C1188.3 653.3 1279.7 660.7 1371.2 673C1462.7 685.3 1554.3 702.7 1645.8 707.7C1737.3 712.7 1828.7 705.3 1874.3 701.7L1920 698L1920 1081L1874.3 1081C1828.7 1081 1737.3 1081 1645.8 1081C1554.3 1081 1462.7 1081 1371.2 1081C1279.7 1081 1188.3 1081 1097 1081C1005.7 1081 914.3 1081 823 1081C731.7 1081 640.3 1081 548.8 1081C457.3 1081 365.7 1081 274.2 1081C182.7 1081 91.3 1081 45.7 1081L0 1081Z" fill="#a59be5"></path><path d="M0 838L45.7 827.5C91.3 817 182.7 796 274.2 776.3C365.7 756.7 457.3 738.3 548.8 745.3C640.3 752.3 731.7 784.7 823 806.3C914.3 828 1005.7 839 1097 832.8C1188.3 826.7 1279.7 803.3 1371.2 785.8C1462.7 768.3 1554.3 756.7 1645.8 755.8C1737.3 755 1828.7 765 1874.3 770L1920 775L1920 1081L1874.3 1081C1828.7 1081 1737.3 1081 1645.8 1081C1554.3 1081 1462.7 1081 1371.2 1081C1279.7 1081 1188.3 1081 1097 1081C1005.7 1081 914.3 1081 823 1081C731.7 1081 640.3 1081 548.8 1081C457.3 1081 365.7 1081 274.2 1081C182.7 1081 91.3 1081 45.7 1081L0 1081Z" fill="#9381ef"></path><path d="M0 824L45.7 832.3C91.3 840.7 182.7 857.3 274.2 872.5C365.7 887.7 457.3 901.3 548.8 904.7C640.3 908 731.7 901 823 899C914.3 897 1005.7 900 1097 893.5C1188.3 887 1279.7 871 1371.2 856.3C1462.7 841.7 1554.3 828.3 1645.8 833.2C1737.3 838 1828.7 861 1874.3 872.5L1920 884L1920 1081L1874.3 1081C1828.7 1081 1737.3 1081 1645.8 1081C1554.3 1081 1462.7 1081 1371.2 1081C1279.7 1081 1188.3 1081 1097 1081C1005.7 1081 914.3 1081 823 1081C731.7 1081 640.3 1081 548.8 1081C457.3 1081 365.7 1081 274.2 1081C182.7 1081 91.3 1081 45.7 1081L0 1081Z" fill="#8364f7"></path><path d="M0 918L45.7 913.5C91.3 909 182.7 900 274.2 905C365.7 910 457.3 929 548.8 939C640.3 949 731.7 950 823 939.2C914.3 928.3 1005.7 905.7 1097 893.8C1188.3 882 1279.7 881 1371.2 887.5C1462.7 894 1554.3 908 1645.8 909.3C1737.3 910.7 1828.7 899.3 1874.3 893.7L1920 888L1920 1081L1874.3 1081C1828.7 1081 1737.3 1081 1645.8 1081C1554.3 1081 1462.7 1081 1371.2 1081C1279.7 1081 1188.3 1081 1097 1081C1005.7 1081 914.3 1081 823 1081C731.7 1081 640.3 1081 548.8 1081C457.3 1081 365.7 1081 274.2 1081C182.7 1081 91.3 1081 45.7 1081L0 1081Z" fill="#7443fc"></path><path d="M0 1013L45.7 1015.8C91.3 1018.7 182.7 1024.3 274.2 1016.3C365.7 1008.3 457.3 986.7 548.8 985C640.3 983.3 731.7 1001.7 823 1006.7C914.3 1011.7 1005.7 1003.3 1097 998C1188.3 992.7 1279.7 990.3 1371.2 991.7C1462.7 993 1554.3 998 1645.8 999.7C1737.3 1001.3 1828.7 999.7 1874.3 998.8L1920 998L1920 1081L1874.3 1081C1828.7 1081 1737.3 1081 1645.8 1081C1554.3 1081 1462.7 1081 1371.2 1081C1279.7 1081 1188.3 1081 1097 1081C1005.7 1081 914.3 1081 823 1081C731.7 1081 640.3 1081 548.8 1081C457.3 1081 365.7 1081 274.2 1081C182.7 1081 91.3 1081 45.7 1081L0 1081Z" fill="#6600ff"></path></svg>